<svg id="excoW6XGOqN1" xmlns="http://www.w3.org/2000/svg" xmlns:xlink="http://www.w3.org/1999/xlink" viewBox="0 0 123 75" shape-rendering="geometricPrecision" text-rendering="geometricPrecision"><circle r="5.5" transform="translate(5.5 5.5)" fill="#f4b600"/><circle r="5.5" transform="translate(5.5 37.5)" fill="#f4b600"/><circle r="5.5" transform="translate(5.5 21.5)" fill="#f4b600"/><circle r="5.5" transform="translate(5.5 53.5)" fill="#f4b600"/><circle r="5.5" transform="translate(5.5 69.5)" fill="#f4b600"/><circle r="5.5" transform="translate(69.5 5.5)" fill="#f4b600"/><circle r="5.5" transform="translate(69.5 37.5)" fill="#f4b600"/><circle r="5.5" transform="translate(69.5 21.5)" fill="#f4b600"/><circle r="5.5" transform="translate(69.5 53.5)" fill="#f4b600"/><circle r="5.5" transform="translate(69.5 69.5)" fill="#f4b600"/><circle r="5.5" transform="translate(37.5 5.5)" fill="#f4b600"/><circle r="5.5" transform="translate(37.5 37.5)" fill="#f4b600"/><circle r="5.5" transform="translate(37.5 21.5)" fill="#f4b600"/><circle r="5.5" transform="translate(37.5 53.5)" fill="#f4b600"/><circle r="5.5" transform="translate(37.5 69.5)" fill="#f4b600"/><circle r="5.5" transform="translate(101.5 5.5)" fill="#f4b600"/><circle r="5.5" transform="translate(101.5 37.5)" fill="#f4b600"/><circle r="5.5" transform="translate(101.5 21.5)" fill="#f4b600"/><circle r="5.5" transform="translate(101.5 53.5)" fill="#f4b600"/><circle r="5.5" transform="translate(101.5 69.5)" fill="#f4b600"/><circle r="5.5" transform="translate(5.5 5.5)" fill="#f4b600"/><circle r="5.5" transform="translate(5.5 37.5)" fill="#f4b600"/><circle r="5.5" transform="translate(5.5 21.5)" fill="#f4b600"/><circle r="5.5" transform="translate(5.5 53.5)" fill="#f4b600"/><circle r="5.5" transform="translate(5.5 69.5)" fill="#f4b600"/><circle r="5.5" transform="translate(69.5 5.5)" fill="#f4b600"/><circle r="5.5" transform="translate(69.5 37.5)" fill="#f4b600"/><circle r="5.5" transform="translate(69.5 21.5)" fill="#f4b600"/><circle r="5.5" transform="translate(69.5 53.5)" fill="#f4b600"/><circle r="5.5" transform="translate(69.5 69.5)" fill="#f4b600"/><circle r="5.5" transform="translate(37.5 5.5)" fill="#f4b600"/><circle r="5.5" transform="translate(37.5 37.5)" fill="#f4b600"/><circle r="5.5" transform="translate(37.5 21.5)" fill="#f4b600"/><circle r="5.5" transform="translate(37.5 53.5)" fill="#f4b600"/><circle r="5.5" transform="translate(37.5 69.5)" fill="#f4b600"/><circle r="5.5" transform="translate(101.5 5.5)" fill="#f4b600"/><circle r="5.5" transform="translate(101.5 37.5)" fill="#f4b600"/><circle r="5.5" transform="translate(101.5 21.5)" fill="#f4b600"/><circle r="5.5" transform="translate(101.5 53.5)" fill="#f4b600"/><circle r="5.5" transform="translate(101.5 69.5)" fill="#f4b600"/><circle r="5.5" transform="translate(21.5 5.5)" fill="#f4b600"/><circle r="5.5" transform="translate(21.5 37.5)" fill="#f4b600"/><circle r="5.5" transform="translate(21.5 21.5)" fill="#f4b600"/><circle r="5.5" transform="translate(21.5 53.5)" fill="#f4b600"/><circle r="5.5" transform="translate(21.5 69.5)" fill="#f4b600"/><circle r="5.5" transform="translate(85.5 5.5)" fill="#f4b600"/><circle r="5.5" transform="translate(85.5 37.5)" fill="#f4b600"/><circle r="5.5" transform="translate(85.5 21.5)" fill="#f4b600"/><circle r="5.5" transform="translate(85.5 53.5)" fill="#f4b600"/><circle r="5.5" transform="translate(85.5 69.5)" fill="#f4b600"/><circle r="5.5" transform="translate(53.5 5.5)" fill="#f4b600"/><circle r="5.5" transform="translate(53.5 37.5)" fill="#f4b600"/><circle r="5.5" transform="translate(53.5 21.5)" fill="#f4b600"/><circle r="5.5" transform="translate(53.5 53.5)" fill="#f4b600"/><circle r="5.5" transform="translate(53.5 69.5)" fill="#f4b600"/><circle r="5.5" transform="translate(117.5 5.5)" fill="#f4b600"/><circle r="5.5" transform="translate(117.5 37.5)" fill="#f4b600"/><circle r="5.5" transform="translate(117.5 21.5)" fill="#f4b600"/><circle r="5.5" transform="translate(117.5 53.5)" fill="#f4b600"/><circle r="5.5" transform="translate(117.5 69.5)" fill="#f4b600"/></svg>
